<?xml version="1.0" standalone="no"?>
<!DOCTYPE svg PUBLIC "-//W3C//DTD SVG 20010904//EN"
 "http://www.w3.org/TR/2001/REC-SVG-20010904/DTD/svg10.dtd">
<svg version="1.0" xmlns="http://www.w3.org/2000/svg"
 width="384.000000pt" height="384.000000pt" viewBox="0 0 384.000000 384.000000"
 preserveAspectRatio="xMidYMid meet">
<metadata>
Created by potrace 1.14, written by Peter Selinger 2001-2017
</metadata>
<g transform="translate(0.000000,384.000000) scale(0.100000,-0.100000)"
fill="#000000" stroke="none">
<path d="M1599 2830 c-158 -28 -234 -154 -183 -303 19 -57 62 -96 146 -134 34
-15 90 -41 123 -58 59 -30 60 -31 63 -76 2 -38 -2 -52 -21 -75 -20 -23 -34
-28 -86 -32 -36 -3 -73 1 -91 8 -38 16 -70 55 -70 86 0 23 -2 24 -86 24 l-87
0 7 -42 c24 -150 140 -228 321 -215 184 13 271 85 283 234 10 128 -42 193
-202 257 -69 27 -104 47 -126 72 -35 40 -35 45 -15 84 21 41 81 57 149 38 44
-11 54 -19 72 -53 20 -39 21 -40 82 -43 83 -4 102 7 92 52 -25 114 -104 171
-245 180 -44 2 -101 1 -126 -4z"/>
<path d="M2407 2829 c-148 -21 -269 -133 -319 -294 -31 -100 -32 -271 -2 -336
61 -131 187 -199 343 -186 148 13 244 74 300 190 53 110 53 107 -28 109 -39 0
-76 1 -82 2 -13 1 -21 -12 -39 -61 -16 -44 -69 -82 -133 -95 -108 -23 -184 20
-214 121 -22 77 -7 189 39 281 53 104 150 155 252 131 59 -14 89 -41 105 -95
l15 -47 80 3 81 3 -3 35 c-4 61 -42 138 -85 175 -66 57 -186 82 -310 64z"/>
<path d="M770 2827 c0 -6 -89 -450 -125 -622 -19 -93 -35 -173 -35 -177 0 -5
35 -8 78 -8 l79 0 32 148 c17 81 31 152 31 157 0 22 21 85 30 85 4 0 29 -42
55 -92 26 -51 72 -139 102 -195 l55 -103 84 0 c46 0 84 2 84 5 0 9 -26 58
-121 231 -49 88 -89 167 -89 175 1 8 79 97 175 199 96 101 175 188 175 192 0
4 -38 8 -84 8 l-85 0 -43 -47 c-163 -178 -301 -323 -305 -320 -2 2 13 81 32
176 20 94 33 176 30 181 -5 9 -155 15 -155 7z"/>
<path d="M482 1853 c-38 -165 -56 -262 -50 -268 3 -3 66 -6 141 -8 83 -1 137
-6 137 -12 0 -5 -13 -58 -28 -118 -16 -59 -26 -109 -24 -112 3 -3 70 -5 149
-5 l143 0 -6 -27 c-3 -16 -17 -67 -30 -115 -13 -48 -24 -89 -24 -92 0 -3 574
-6 1275 -6 l1275 0 6 28 c3 15 8 34 11 42 13 43 62 274 58 279 -2 4 -64 5
-138 3 -74 -2 -137 0 -140 4 -2 5 6 52 19 104 37 153 48 140 -116 140 -163 0
-150 -14 -116 135 13 55 22 103 19 108 -2 4 -575 7 -1273 7 l-1268 0 -20 -87z
m1964 -442 l1042 -1 -14 -62 c-7 -35 -22 -97 -33 -138 -11 -41 -21 -78 -21
-82 0 -5 -561 -8 -1246 -8 l-1246 0 5 23 c3 12 18 74 33 137 15 65 34 121 43
128 12 10 59 12 206 8 105 -3 659 -5 1231 -5z"/>
</g>
</svg>
